<svg id="svg" xmlns="http://www.w3.org/2000/svg" xmlns:xlink="http://www.w3.org/1999/xlink" width="400" height="400" viewBox="0, 0, 400,400" version="1.1"><g id="svgg"><path id="path0" d="M193.870 72.060 C 189.207 73.420,187.493 74.707,163.011 95.227 C 157.347 99.975,141.832 112.894,137.200 116.720 C 134.890 118.629,132.910 120.288,132.800 120.407 C 132.690 120.526,127.290 125.036,120.800 130.430 C 105.341 143.276,96.520 150.618,88.200 157.562 C 84.460 160.684,79.512 164.804,77.204 166.719 C 74.897 168.634,72.557 170.590,72.004 171.067 C 71.452 171.544,67.490 174.844,63.200 178.401 C 58.910 181.958,54.950 185.256,54.400 185.730 C 53.850 186.203,51.240 188.374,48.600 190.552 C 42.853 195.295,42.489 195.691,42.165 197.551 C 42.027 198.348,41.462 199.943,40.911 201.096 C 39.536 203.975,40.041 206.583,42.480 209.200 C 42.992 209.750,45.805 213.080,48.730 216.600 C 54.744 223.838,56.265 225.012,59.134 224.634 C 61.480 224.325,60.497 225.079,81.600 207.408 C 83.470 205.842,86.800 203.065,89.000 201.236 C 91.200 199.407,93.810 197.233,94.800 196.404 C 95.790 195.576,99.930 192.135,104.000 188.758 C 108.070 185.381,111.490 182.514,111.600 182.387 C 111.710 182.260,116.750 178.052,122.800 173.036 C 128.850 168.020,134.250 163.527,134.800 163.052 C 136.446 161.628,159.554 142.360,162.205 140.200 C 164.829 138.062,169.159 134.460,170.800 133.051 C 173.980 130.320,198.284 110.119,198.697 109.863 C 199.315 109.482,199.754 109.738,202.446 112.052 C 203.631 113.071,209.550 118.016,215.600 123.040 C 221.650 128.064,227.050 132.562,227.600 133.036 C 228.150 133.510,236.250 140.263,245.600 148.043 C 254.950 155.823,263.050 162.577,263.600 163.052 C 264.150 163.527,269.550 168.020,275.600 173.036 C 281.650 178.052,286.690 182.258,286.800 182.384 C 286.970 182.578,291.877 186.672,298.800 192.396 C 301.055 194.260,305.188 197.705,309.600 201.398 C 311.470 202.963,315.156 206.034,317.791 208.222 C 320.426 210.410,323.036 212.588,323.591 213.062 C 341.076 227.997,340.235 227.883,349.649 216.600 C 352.586 213.080,355.408 209.750,355.920 209.200 C 357.136 207.896,357.838 206.530,358.182 204.800 C 358.335 204.030,358.807 202.637,359.230 201.704 C 361.334 197.070,362.784 198.648,336.000 176.425 C 332.150 173.231,328.910 170.521,328.800 170.403 C 328.690 170.285,326.350 168.327,323.600 166.053 C 320.850 163.779,317.655 161.116,316.500 160.136 L 314.400 158.354 314.400 117.271 C 314.400 70.757,314.653 74.278,311.186 72.500 C 309.171 71.467,271.397 71.060,268.360 72.038 C 266.422 72.662,264.556 74.862,264.229 76.909 C 264.081 77.839,263.654 79.050,263.280 79.600 C 262.671 80.495,262.587 82.391,262.480 97.700 C 262.414 107.105,262.265 114.800,262.148 114.800 C 262.032 114.800,258.666 112.066,254.668 108.724 C 239.528 96.068,232.969 90.572,232.001 89.732 C 225.666 84.238,214.501 75.248,212.664 74.163 C 207.645 71.198,199.824 70.323,193.870 72.060 M197.200 125.250 C 195.330 126.802,192.000 129.538,189.800 131.330 C 187.600 133.121,185.350 134.973,184.800 135.445 C 184.250 135.917,182.090 137.709,180.000 139.427 C 177.910 141.146,174.670 143.830,172.800 145.393 C 170.930 146.955,168.839 148.676,168.154 149.217 C 166.641 150.410,143.819 169.208,136.200 175.536 C 135.760 175.901,133.960 177.370,132.200 178.800 C 130.440 180.230,128.910 181.494,128.800 181.609 C 128.690 181.724,127.610 182.632,126.400 183.626 C 125.190 184.621,122.670 186.696,120.800 188.238 C 118.930 189.781,115.772 192.383,113.782 194.021 C 105.190 201.094,101.734 203.945,99.018 206.200 C 97.427 207.520,94.131 210.220,91.693 212.200 L 87.259 215.800 87.230 217.638 C 87.209 218.941,86.967 219.687,86.400 220.200 C 85.185 221.299,85.137 317.380,86.350 320.573 C 87.382 323.291,90.468 326.682,92.970 327.847 L 95.000 328.792 134.420 328.796 L 173.839 328.800 173.676 327.401 C 173.445 325.426,173.858 324.130,174.796 323.885 C 175.594 323.677,175.600 323.402,175.600 288.434 L 175.600 253.194 200.100 253.297 L 224.600 253.400 224.600 291.100 L 224.600 328.800 264.000 328.796 L 303.400 328.792 305.401 327.860 C 308.249 326.534,311.206 323.163,312.145 320.172 C 312.555 318.868,313.230 316.921,313.645 315.847 C 314.370 313.970,314.400 311.974,314.391 264.847 L 314.383 215.800 309.990 212.228 C 307.573 210.264,305.282 208.369,304.898 208.018 C 304.514 207.667,302.400 205.917,300.200 204.129 C 298.000 202.341,293.230 198.417,289.600 195.410 C 285.970 192.402,280.870 188.200,278.267 186.071 C 275.664 183.942,272.221 181.120,270.616 179.800 C 269.012 178.480,264.751 174.978,261.149 172.019 C 257.547 169.059,251.450 164.026,247.600 160.835 C 243.750 157.643,238.980 153.698,237.000 152.068 C 235.020 150.437,232.950 148.719,232.400 148.249 C 231.850 147.779,229.960 146.228,228.200 144.802 C 226.440 143.377,222.842 140.409,220.205 138.208 C 217.568 136.006,214.307 133.304,212.957 132.203 C 204.793 125.539,200.880 122.402,200.749 122.413 C 200.667 122.421,199.070 123.697,197.200 125.250 " stroke="none" fill="#04aa43" fill-rule="evenodd"></path><path id="path1" d="M171.800 0.385 C 170.915 0.510,170.239 0.815,170.287 1.068 C 170.335 1.319,170.113 1.625,169.792 1.748 C 169.460 1.875,169.251 1.762,169.305 1.486 C 169.510 0.438,163.733 1.351,163.394 2.419 C 163.106 3.326,160.412 3.669,159.789 2.878 C 159.390 2.371,157.844 2.621,158.162 3.142 C 158.249 3.284,157.431 3.402,156.343 3.403 C 155.078 3.406,154.241 3.610,154.019 3.970 C 153.810 4.307,152.894 4.565,151.735 4.612 C 149.340 4.710,146.302 5.518,146.588 5.981 C 146.705 6.171,146.449 6.233,146.020 6.121 C 145.391 5.957,140.617 7.190,137.600 8.296 C 137.270 8.417,135.380 9.100,133.400 9.813 C 131.420 10.526,129.839 11.291,129.886 11.514 C 129.934 11.736,129.658 11.836,129.274 11.735 C 128.890 11.635,128.042 11.773,127.388 12.043 C 126.735 12.312,126.110 12.563,126.000 12.600 C 124.939 12.956,120.267 14.906,120.012 15.100 C 119.908 15.179,120.088 15.431,120.412 15.659 C 120.874 15.986,120.829 16.018,120.200 15.808 C 118.786 15.335,118.598 15.385,118.717 16.200 C 118.810 16.839,118.755 16.883,118.442 16.417 C 118.106 15.916,117.790 15.959,116.225 16.717 C 115.221 17.203,113.545 18.005,112.500 18.500 C 111.455 18.994,110.510 19.489,110.400 19.600 C 110.290 19.710,108.808 20.497,107.107 21.349 C 105.405 22.201,104.109 23.053,104.227 23.244 C 104.345 23.435,104.160 23.483,103.816 23.351 C 103.471 23.219,102.951 23.309,102.659 23.551 C 102.367 23.794,101.064 24.557,99.764 25.248 C 98.464 25.939,97.310 26.616,97.200 26.752 C 97.090 26.889,96.460 27.304,95.800 27.675 C 95.140 28.046,94.578 28.541,94.550 28.775 C 94.440 29.709,94.375 29.780,94.070 29.299 C 93.800 28.874,88.531 31.942,86.200 33.882 C 85.980 34.065,84.937 34.782,83.881 35.475 C 82.394 36.450,82.124 36.776,82.681 36.921 C 83.146 37.041,83.012 37.124,82.300 37.154 C 81.695 37.179,81.245 37.402,81.300 37.650 C 81.355 37.897,81.150 38.191,80.844 38.302 C 80.468 38.439,80.393 38.336,80.612 37.981 C 80.789 37.694,79.599 38.519,77.967 39.815 C 74.276 42.745,73.973 43.040,74.307 43.374 C 74.455 43.521,74.311 43.545,73.988 43.426 C 72.998 43.062,61.270 53.544,62.087 54.062 C 62.563 54.364,62.101 54.569,61.168 54.470 C 60.673 54.417,54.740 60.712,54.605 61.435 C 54.526 61.856,54.445 62.290,54.424 62.400 C 54.404 62.510,54.243 62.371,54.065 62.092 C 53.685 61.493,50.606 64.595,50.591 65.592 C 50.585 65.927,50.315 66.170,49.991 66.133 C 49.353 66.060,47.672 68.001,41.310 76.157 C 39.060 79.041,37.061 81.590,36.867 81.821 C 36.674 82.053,35.996 83.043,35.362 84.021 C 34.727 85.000,34.112 85.890,33.995 86.000 C 33.495 86.469,32.229 88.623,32.303 88.877 C 32.348 89.029,31.848 89.690,31.192 90.346 C 30.001 91.538,29.556 92.703,30.500 92.159 C 30.790 91.992,30.860 92.024,30.667 92.236 C 30.483 92.436,30.175 92.600,29.980 92.600 C 29.597 92.600,27.200 96.204,27.200 96.781 C 27.200 96.975,27.045 97.193,26.855 97.267 C 26.497 97.405,24.422 101.007,22.516 104.800 C 21.908 106.010,21.299 107.090,21.162 107.200 C 21.025 107.310,20.671 108.075,20.376 108.900 C 20.081 109.725,19.716 110.400,19.566 110.400 C 19.416 110.400,19.199 110.760,19.084 111.200 C 18.969 111.640,19.032 112.000,19.225 112.000 C 19.417 112.000,19.465 112.285,19.332 112.634 C 19.139 113.137,19.022 113.159,18.763 112.740 C 18.535 112.371,18.248 112.692,17.806 113.807 C 17.459 114.683,16.900 115.895,16.565 116.500 C 16.202 117.154,16.126 117.600,16.377 117.600 C 17.092 117.600,16.845 118.295,16.056 118.501 C 15.648 118.608,15.184 119.208,15.027 119.834 C 14.870 120.460,14.421 121.698,14.030 122.586 C 13.356 124.115,12.751 125.559,12.601 126.000 C 12.564 126.110,12.312 126.735,12.043 127.388 C 11.773 128.042,11.635 128.890,11.735 129.274 C 11.836 129.658,11.736 129.934,11.514 129.886 C 11.291 129.839,10.526 131.420,9.813 133.400 C 9.100 135.380,8.410 137.270,8.280 137.600 C 7.670 139.149,7.308 141.215,7.398 142.637 C 7.452 143.497,7.417 143.885,7.319 143.500 C 6.998 142.237,6.514 142.765,6.035 144.900 C 5.775 146.055,5.455 147.432,5.324 147.959 C 5.150 148.654,5.219 148.835,5.573 148.617 C 5.923 148.400,6.024 148.638,5.931 149.457 C 5.852 150.143,5.560 150.603,5.200 150.608 C 4.750 150.615,4.628 151.014,4.711 152.208 C 4.791 153.350,4.712 153.633,4.433 153.211 C 3.872 152.365,3.466 153.587,3.429 156.231 C 3.413 157.378,3.284 158.247,3.142 158.161 C 2.621 157.845,2.371 159.390,2.878 159.789 C 3.233 160.069,3.322 160.712,3.157 161.800 L 2.914 163.400 2.857 161.900 C 2.763 159.428,2.191 160.197,1.665 163.500 C 0.955 167.962,0.910 169.418,1.486 169.305 C 1.762 169.251,1.875 169.460,1.748 169.792 C 1.625 170.113,1.316 170.335,1.062 170.287 C 0.310 170.145,-0.287 176.373,0.434 176.830 C 0.748 177.028,0.800 177.190,0.550 177.194 C 0.223 177.198,0.101 183.394,0.101 200.000 C 0.101 216.606,0.223 222.802,0.550 222.806 C 0.800 222.810,0.748 222.972,0.434 223.170 C -0.287 223.627,0.310 229.855,1.062 229.713 C 1.316 229.665,1.625 229.887,1.748 230.208 C 1.875 230.540,1.762 230.749,1.486 230.695 C 0.910 230.582,0.955 232.038,1.665 236.500 C 2.191 239.803,2.763 240.572,2.857 238.100 L 2.914 236.600 3.157 238.200 C 3.322 239.288,3.233 239.931,2.878 240.211 C 2.371 240.610,2.621 242.156,3.142 241.838 C 3.284 241.751,3.402 242.575,3.404 243.670 C 3.407 245.146,3.588 245.762,4.106 246.051 C 4.581 246.317,4.732 246.732,4.577 247.348 C 4.452 247.846,4.640 249.411,4.995 250.827 C 5.350 252.242,5.824 254.160,6.050 255.090 C 6.276 256.019,6.672 256.739,6.930 256.690 C 7.202 256.638,7.349 256.970,7.279 257.478 C 7.072 258.973,8.618 264.000,9.285 264.000 C 9.444 264.000,9.485 264.234,9.376 264.520 C 9.109 265.214,11.040 270.224,11.532 270.114 C 11.744 270.066,11.836 270.342,11.735 270.726 C 11.635 271.110,11.773 271.958,12.043 272.612 C 12.312 273.265,12.563 273.890,12.600 274.000 C 12.750 274.448,13.640 276.653,13.972 277.400 C 14.168 277.840,14.715 279.100,15.189 280.200 C 15.662 281.300,16.299 282.740,16.605 283.400 C 16.910 284.060,17.435 285.288,17.771 286.129 C 18.108 286.970,18.547 287.557,18.746 287.433 C 18.946 287.310,19.335 287.481,19.611 287.814 C 20.027 288.315,20.006 288.377,19.486 288.178 C 19.006 287.993,18.910 288.132,19.076 288.768 C 19.195 289.226,19.431 289.600,19.600 289.600 C 19.769 289.600,20.006 289.978,20.126 290.440 C 20.265 290.971,20.525 291.170,20.831 290.981 C 21.185 290.762,21.247 290.959,21.059 291.707 C 20.917 292.272,20.936 292.794,21.101 292.867 C 21.265 292.940,21.940 294.056,22.600 295.347 C 25.150 300.335,25.181 300.382,25.798 300.146 C 26.129 300.018,26.400 300.114,26.400 300.357 C 26.400 300.601,26.224 300.800,26.009 300.800 C 25.770 300.800,25.796 301.192,26.073 301.800 C 26.323 302.350,26.680 302.800,26.864 302.800 C 27.049 302.800,27.200 302.977,27.200 303.192 C 27.200 303.570,29.005 306.581,31.101 309.700 C 31.655 310.525,32.354 311.200,32.654 311.200 C 32.954 311.200,33.200 311.391,33.200 311.624 C 33.200 311.857,33.001 311.924,32.759 311.774 C 32.355 311.525,33.485 313.538,34.008 314.000 C 34.133 314.110,34.767 315.055,35.417 316.099 C 36.096 317.190,36.898 317.999,37.300 317.999 C 37.685 318.000,38.000 318.191,38.000 318.424 C 38.000 318.657,37.792 318.719,37.538 318.562 C 36.829 318.123,37.394 318.928,41.401 324.057 C 47.471 331.830,60.303 345.600,61.475 345.600 C 61.764 345.600,62.000 345.840,62.000 346.134 C 62.000 346.428,63.089 347.643,64.420 348.834 C 65.752 350.025,67.073 351.209,67.356 351.464 C 67.902 351.956,73.923 356.989,74.600 357.520 C 74.820 357.692,75.961 358.591,77.136 359.517 C 78.311 360.442,79.610 361.200,80.023 361.200 C 80.562 361.200,80.702 361.390,80.518 361.869 C 80.315 362.399,80.419 362.478,81.018 362.248 C 81.435 362.088,81.655 362.079,81.507 362.226 C 81.172 362.561,81.710 363.074,84.000 364.599 C 84.990 365.258,85.890 365.889,86.000 366.002 C 86.616 366.629,92.949 370.586,93.217 370.510 C 93.393 370.461,94.111 370.956,94.811 371.610 C 95.512 372.265,96.321 372.800,96.609 372.800 C 96.897 372.800,97.193 372.954,97.267 373.143 C 97.534 373.830,102.757 376.326,102.949 375.858 C 103.052 375.606,103.151 375.734,103.168 376.143 C 103.190 376.644,103.402 376.808,103.821 376.647 C 104.162 376.516,104.347 376.562,104.231 376.749 C 104.116 376.936,105.277 377.747,106.811 378.550 C 108.595 379.485,109.610 379.829,109.627 379.506 C 109.642 379.228,109.849 379.405,110.088 379.900 C 110.327 380.395,110.720 380.802,110.961 380.805 C 111.203 380.808,112.806 381.528,114.524 382.405 C 117.677 384.015,118.653 384.332,118.200 383.600 C 118.064 383.380,118.151 383.200,118.394 383.200 C 118.637 383.200,118.782 383.493,118.718 383.852 C 118.590 384.560,121.356 385.779,122.283 385.424 C 122.562 385.316,122.748 385.420,122.695 385.653 C 122.643 385.886,123.005 386.234,123.500 386.426 C 124.054 386.640,124.400 386.625,124.400 386.387 C 124.400 386.174,124.591 386.000,124.824 386.000 C 125.057 386.000,125.149 386.160,125.028 386.355 C 124.828 386.678,125.523 387.524,126.000 387.538 C 126.110 387.541,126.735 387.747,127.388 387.995 C 128.042 388.244,128.897 388.363,129.289 388.261 C 129.681 388.158,129.900 388.238,129.776 388.438 C 129.653 388.638,130.024 388.981,130.602 389.201 C 131.985 389.727,132.512 389.706,132.162 389.138 C 131.984 388.850,132.052 388.785,132.345 388.966 C 132.602 389.125,132.726 389.396,132.620 389.567 C 132.514 389.739,133.456 390.214,134.714 390.624 C 135.971 391.033,137.180 391.486,137.400 391.632 C 138.136 392.117,142.002 392.885,142.584 392.661 C 142.967 392.515,143.085 392.635,142.937 393.020 C 142.803 393.370,142.956 393.600,143.324 393.600 C 143.660 393.600,144.249 393.721,144.633 393.868 C 145.109 394.051,145.239 393.987,145.042 393.667 C 144.882 393.410,145.348 393.543,146.076 393.963 C 147.674 394.886,151.648 395.742,152.897 395.431 C 153.394 395.308,153.574 395.311,153.298 395.438 C 152.591 395.762,153.088 396.400,154.047 396.400 C 154.487 396.400,154.736 396.220,154.600 396.000 C 154.464 395.780,154.543 395.600,154.776 395.600 C 155.009 395.600,155.200 395.889,155.200 396.242 C 155.200 396.747,155.533 396.852,156.766 396.735 C 157.628 396.652,158.255 396.711,158.161 396.864 C 157.846 397.374,159.629 397.674,160.193 397.206 C 160.498 396.953,161.344 396.819,162.074 396.909 C 163.346 397.065,163.335 397.075,161.820 397.136 C 158.870 397.256,160.954 398.082,164.357 398.143 C 166.134 398.174,167.410 398.260,167.192 398.334 C 166.399 398.602,167.278 399.200,168.466 399.200 C 169.455 399.200,169.639 399.068,169.438 398.500 C 169.258 397.993,169.384 398.041,169.895 398.674 C 170.799 399.796,176.246 400.488,176.836 399.556 C 177.035 399.240,177.190 399.195,177.194 399.450 C 177.203 400.092,222.797 400.092,222.806 399.450 C 222.810 399.195,222.965 399.240,223.164 399.556 C 223.754 400.488,229.201 399.796,230.105 398.674 C 230.616 398.041,230.742 397.993,230.562 398.500 C 230.361 399.068,230.545 399.200,231.534 399.200 C 232.722 399.200,233.601 398.602,232.808 398.334 C 232.590 398.260,233.866 398.174,235.643 398.143 C 239.046 398.082,241.130 397.256,238.180 397.136 C 236.665 397.075,236.654 397.065,237.926 396.909 C 238.656 396.819,239.502 396.953,239.807 397.206 C 240.366 397.669,242.153 397.376,241.847 396.871 C 241.757 396.722,242.622 396.587,243.769 396.571 C 246.433 396.533,247.629 396.130,246.789 395.552 C 246.342 395.245,246.417 395.209,247.103 395.402 C 248.320 395.744,252.290 394.907,253.924 393.963 C 254.652 393.543,255.118 393.410,254.958 393.667 C 254.761 393.987,254.891 394.051,255.367 393.868 C 255.751 393.721,256.340 393.600,256.676 393.600 C 257.022 393.600,257.196 393.368,257.079 393.062 C 256.932 392.677,257.146 392.577,257.837 392.709 C 258.376 392.812,258.800 392.702,258.800 392.459 C 258.800 392.220,259.070 392.129,259.400 392.255 C 259.730 392.382,260.000 392.301,260.000 392.076 C 260.000 391.851,259.775 391.576,259.500 391.465 C 259.225 391.354,259.405 391.249,259.900 391.232 C 260.395 391.214,260.800 391.380,260.800 391.600 C 260.800 392.076,262.080 392.134,262.620 391.682 C 262.829 391.507,264.029 391.030,265.286 390.622 C 266.544 390.213,267.479 389.729,267.366 389.544 C 267.252 389.360,267.407 389.304,267.710 389.421 C 268.448 389.704,270.508 388.898,270.224 388.438 C 270.100 388.238,270.319 388.158,270.711 388.261 C 271.103 388.363,271.958 388.244,272.612 387.995 C 273.265 387.747,273.817 387.601,273.839 387.672 C 273.860 387.742,274.173 387.555,274.534 387.255 C 274.896 386.955,275.093 386.550,274.972 386.355 C 274.851 386.160,274.943 386.000,275.176 386.000 C 275.409 386.000,275.600 386.174,275.600 386.387 C 275.600 386.625,275.946 386.640,276.500 386.426 C 276.995 386.234,277.357 385.886,277.305 385.653 C 277.252 385.420,277.438 385.316,277.717 385.424 C 278.644 385.779,281.410 384.560,281.282 383.852 C 281.218 383.493,281.363 383.200,281.606 383.200 C 281.849 383.200,281.936 383.380,281.800 383.600 C 281.347 384.332,282.323 384.015,285.476 382.405 C 287.194 381.528,288.813 380.808,289.073 380.805 C 289.333 380.802,289.657 380.449,289.794 380.020 C 289.930 379.589,290.277 379.331,290.570 379.444 C 291.240 379.701,296.051 377.207,295.769 376.749 C 295.653 376.562,295.838 376.516,296.179 376.647 C 296.598 376.808,296.810 376.644,296.832 376.143 C 296.849 375.734,296.948 375.606,297.051 375.858 C 297.216 376.260,302.170 374.006,302.800 373.242 C 302.910 373.108,303.492 372.745,304.093 372.435 C 304.695 372.126,305.590 371.496,306.084 371.036 C 306.577 370.576,307.016 370.290,307.059 370.400 C 307.122 370.562,312.653 367.073,314.200 365.896 C 314.420 365.728,315.097 365.219,315.704 364.764 C 316.311 364.308,316.693 363.751,316.554 363.525 C 316.395 363.269,316.601 363.210,317.100 363.368 C 317.692 363.556,317.956 363.410,318.113 362.810 C 318.260 362.248,318.532 362.076,318.993 362.253 C 319.489 362.443,319.627 362.317,319.530 361.761 C 319.437 361.227,319.654 360.999,320.292 360.962 C 320.782 360.933,322.042 360.213,323.092 359.361 C 324.141 358.509,325.180 357.676,325.400 357.509 C 325.947 357.095,332.005 352.040,332.644 351.464 C 332.927 351.209,334.236 350.037,335.552 348.860 C 337.012 347.554,337.860 346.502,337.729 346.160 C 337.591 345.801,337.788 345.600,338.276 345.600 C 338.994 345.600,341.831 343.066,342.084 342.200 C 342.148 341.980,342.308 341.836,342.440 341.880 C 343.520 342.240,362.400 320.222,362.400 318.602 C 362.400 318.271,362.625 318.000,362.900 317.999 C 363.175 317.999,363.932 317.144,364.583 316.099 C 365.233 315.055,365.865 314.110,365.986 314.000 C 366.787 313.275,368.540 310.061,368.493 309.405 C 368.450 308.815,368.523 308.752,368.775 309.159 C 369.044 309.595,369.205 309.539,369.554 308.886 C 369.885 308.267,369.871 308.014,369.497 307.859 C 369.182 307.729,369.293 307.560,369.800 307.398 C 370.552 307.157,372.800 303.993,372.800 303.175 C 372.800 302.969,372.951 302.800,373.136 302.800 C 373.320 302.800,373.677 302.350,373.927 301.800 C 374.204 301.192,374.230 300.800,373.991 300.800 C 373.776 300.800,373.600 300.620,373.600 300.400 C 373.600 300.180,373.960 300.000,374.400 300.000 C 375.022 300.000,375.200 299.733,375.200 298.800 C 375.200 298.053,375.389 297.638,375.700 297.700 C 376.000 297.760,376.145 297.480,376.062 297.000 C 375.986 296.560,376.062 296.336,376.230 296.501 C 376.648 296.913,378.467 293.784,378.319 292.906 C 378.254 292.518,378.407 292.239,378.659 292.286 C 378.941 292.339,379.032 292.045,378.896 291.524 C 378.738 290.920,378.816 290.762,379.164 290.978 C 379.476 291.171,379.733 290.976,379.874 290.440 C 379.994 289.978,380.231 289.600,380.400 289.600 C 380.569 289.600,380.801 289.240,380.916 288.800 C 381.031 288.360,380.979 288.000,380.800 288.000 C 380.621 288.000,380.572 287.630,380.690 287.177 C 380.820 286.679,381.126 286.439,381.465 286.570 C 381.819 286.706,382.172 286.382,382.423 285.692 C 382.642 285.092,383.075 284.060,383.386 283.400 C 383.696 282.740,384.338 281.300,384.811 280.200 C 385.285 279.100,385.832 277.840,386.028 277.400 C 386.488 276.365,387.322 274.258,387.373 274.000 C 387.394 273.890,387.574 273.544,387.772 273.232 C 388.047 272.797,387.968 272.727,387.432 272.932 C 386.967 273.111,386.789 273.033,386.900 272.700 C 386.992 272.425,387.322 272.198,387.633 272.195 C 387.983 272.191,388.195 271.780,388.186 271.123 C 388.179 270.537,388.334 270.090,388.530 270.129 C 389.062 270.235,390.091 267.103,389.620 266.812 C 389.405 266.680,389.348 266.128,389.492 265.586 L 389.755 264.600 390.013 265.600 C 390.248 266.508,390.320 266.435,390.806 264.800 C 391.100 263.810,391.465 262.820,391.618 262.600 C 392.114 261.884,392.888 258.007,392.655 257.400 C 392.531 257.075,392.625 256.852,392.864 256.905 C 393.488 257.041,394.263 254.688,393.660 254.487 C 393.049 254.283,393.066 253.572,393.678 253.700 C 394.353 253.841,395.264 250.990,395.338 248.507 C 395.372 247.356,395.460 246.592,395.534 246.810 C 395.754 247.457,396.400 246.817,396.400 245.953 C 396.400 245.513,396.232 245.256,396.028 245.383 C 395.823 245.509,395.542 245.430,395.404 245.207 C 395.263 244.979,395.534 244.800,396.018 244.800 C 396.784 244.800,396.867 244.619,396.735 243.234 C 396.652 242.372,396.705 241.741,396.851 241.831 C 397.376 242.156,397.634 240.614,397.122 240.211 C 396.767 239.931,396.678 239.288,396.843 238.200 L 397.086 236.600 397.143 238.100 C 397.232 240.453,397.859 239.856,398.142 237.149 C 398.283 235.801,398.608 233.998,398.865 233.141 C 399.277 231.767,399.245 231.521,398.594 231.045 C 397.883 230.525,397.887 230.489,398.693 230.057 C 399.775 229.478,400.487 223.754,399.551 223.161 C 399.230 222.958,399.189 222.810,399.452 222.806 C 400.092 222.797,400.083 177.203,399.443 177.194 C 399.199 177.191,399.250 177.029,399.556 176.836 C 400.487 176.246,399.796 170.801,398.674 169.890 C 398.127 169.445,398.024 169.221,398.400 169.290 C 398.798 169.363,399.044 169.011,399.132 168.245 C 399.237 167.328,399.133 167.140,398.632 167.332 C 398.233 167.486,398.000 167.358,398.000 166.987 C 398.000 166.664,398.137 166.400,398.304 166.400 C 398.471 166.400,398.435 165.050,398.225 163.400 C 397.817 160.211,397.238 159.407,397.143 161.900 L 397.086 163.400 396.843 161.800 C 396.678 160.712,396.767 160.069,397.122 159.789 C 397.629 159.390,397.379 157.844,396.858 158.162 C 396.716 158.249,396.598 157.425,396.596 156.330 C 396.593 154.854,396.412 154.238,395.894 153.949 C 395.419 153.683,395.268 153.268,395.423 152.652 C 395.548 152.154,395.358 150.589,395.001 149.173 C 394.644 147.758,394.157 145.736,393.919 144.679 C 393.625 143.375,393.318 142.823,392.963 142.959 C 392.634 143.085,392.523 142.946,392.661 142.584 C 392.871 142.037,392.142 138.227,391.673 137.418 C 391.551 137.208,390.880 135.408,390.182 133.418 C 389.483 131.428,388.725 129.839,388.497 129.886 C 388.269 129.934,388.164 129.658,388.265 129.274 C 388.365 128.890,388.227 128.042,387.957 127.388 C 387.688 126.735,387.436 126.110,387.399 126.000 C 387.011 124.859,385.151 120.527,384.595 119.468 C 384.268 118.845,384.000 118.086,384.000 117.782 C 384.000 117.477,383.647 117.039,383.215 116.808 C 382.783 116.577,382.524 116.142,382.640 115.841 C 382.925 115.099,381.713 112.283,381.236 112.578 C 381.027 112.707,380.742 112.630,380.604 112.407 C 380.466 112.183,380.527 112.000,380.739 112.000 C 380.951 112.000,381.031 111.640,380.916 111.200 C 380.801 110.760,380.569 110.400,380.400 110.400 C 380.231 110.400,379.994 110.022,379.874 109.560 C 379.739 109.045,379.472 108.832,379.184 109.010 C 378.850 109.216,378.797 109.040,379.000 108.400 C 379.157 107.905,379.129 107.388,378.937 107.250 C 378.746 107.113,378.092 106.010,377.484 104.800 C 375.856 101.561,373.529 97.429,373.204 97.200 C 373.048 97.090,372.848 96.820,372.760 96.600 C 371.987 94.667,369.028 90.431,368.757 90.870 C 368.535 91.228,368.455 91.134,368.497 90.569 C 368.583 89.424,366.351 86.032,365.500 86.015 C 365.115 86.007,364.800 85.809,364.800 85.576 C 364.800 85.343,364.978 85.263,365.195 85.397 C 365.423 85.538,365.489 85.375,365.350 85.014 C 365.217 84.668,364.833 84.434,364.496 84.493 C 364.159 84.552,363.796 84.350,363.690 84.044 C 363.572 83.706,363.673 83.598,363.948 83.768 C 364.655 84.205,364.470 83.500,363.589 82.400 C 363.148 81.850,361.036 79.139,358.894 76.376 C 353.040 68.825,339.798 54.353,338.845 54.466 C 337.980 54.568,337.544 54.323,337.729 53.840 C 337.861 53.498,337.010 52.448,335.542 51.140 C 334.220 49.963,332.208 48.166,331.069 47.147 C 327.254 43.730,326.428 43.136,325.908 43.435 C 325.629 43.597,325.526 43.588,325.681 43.417 C 326.024 43.036,325.760 42.774,322.095 39.865 C 320.447 38.556,318.993 37.681,318.734 37.841 C 318.452 38.015,318.386 37.946,318.562 37.662 C 318.745 37.366,318.515 37.189,317.924 37.168 C 317.416 37.151,317.230 37.044,317.512 36.931 C 317.818 36.808,317.254 36.220,316.112 35.470 C 315.060 34.780,314.020 34.065,313.800 33.882 C 311.469 31.942,306.200 28.874,305.930 29.299 C 305.625 29.780,305.560 29.709,305.450 28.775 C 305.423 28.541,304.860 28.046,304.200 27.675 C 303.540 27.304,302.910 26.902,302.800 26.782 C 302.187 26.114,299.408 24.788,298.972 24.955 C 298.691 25.063,298.162 24.696,297.796 24.138 C 297.347 23.453,296.884 23.189,296.365 23.325 C 295.944 23.435,295.686 23.384,295.793 23.211 C 295.900 23.039,294.595 22.201,292.893 21.349 C 291.192 20.497,289.683 19.639,289.540 19.442 C 289.398 19.245,288.995 19.193,288.646 19.327 C 288.251 19.479,287.854 19.275,287.592 18.785 C 287.361 18.353,286.979 18.000,286.744 18.000 C 286.509 18.000,285.433 17.556,284.354 17.014 C 283.274 16.472,282.123 16.131,281.796 16.257 C 281.468 16.383,281.200 16.267,281.200 15.999 C 281.200 15.674,280.837 15.598,280.100 15.769 C 279.313 15.952,279.167 15.913,279.588 15.634 C 279.912 15.419,280.092 15.179,279.988 15.100 C 279.733 14.906,275.061 12.956,274.000 12.600 C 273.890 12.563,273.265 12.312,272.612 12.043 C 271.958 11.773,271.110 11.635,270.726 11.735 C 270.342 11.836,270.066 11.736,270.114 11.514 C 270.161 11.291,268.580 10.526,266.600 9.813 C 264.620 9.100,262.730 8.417,262.400 8.296 C 259.383 7.190,254.609 5.957,253.980 6.121 C 253.551 6.233,253.295 6.171,253.412 5.981 C 253.528 5.792,252.881 5.437,251.972 5.192 C 250.140 4.699,249.338 4.965,250.842 5.566 L 251.800 5.949 250.747 5.975 C 249.995 5.993,249.629 5.755,249.469 5.144 C 249.278 4.412,249.041 4.321,247.828 4.518 C 246.753 4.692,246.320 4.586,246.036 4.078 C 245.764 3.592,245.113 3.406,243.670 3.404 C 242.575 3.402,241.751 3.284,241.838 3.142 C 242.156 2.621,240.610 2.371,240.211 2.878 C 239.588 3.669,236.894 3.326,236.606 2.419 C 236.267 1.351,230.490 0.438,230.695 1.486 C 230.749 1.762,230.540 1.875,230.208 1.748 C 229.887 1.625,229.665 1.327,229.713 1.085 C 229.895 0.169,177.784 -0.461,171.800 0.385 M160.800 2.400 C 160.800 2.620,161.250 2.800,161.800 2.800 C 162.350 2.800,162.800 2.620,162.800 2.400 C 162.800 2.180,162.350 2.000,161.800 2.000 C 161.250 2.000,160.800 2.180,160.800 2.400 M237.200 2.400 C 237.200 2.620,237.650 2.800,238.200 2.800 C 238.750 2.800,239.200 2.620,239.200 2.400 C 239.200 2.180,238.750 2.000,238.200 2.000 C 237.650 2.000,237.200 2.180,237.200 2.400 M207.000 71.445 C 210.826 72.367,213.873 74.118,218.800 78.225 C 221.330 80.334,224.091 82.631,224.936 83.330 C 225.780 84.028,226.680 84.786,226.936 85.013 C 227.479 85.496,237.169 93.583,244.378 99.570 C 247.140 101.864,249.490 103.846,249.600 103.976 C 249.710 104.105,250.790 105.015,252.000 105.998 C 253.210 106.981,255.955 109.284,258.100 111.115 L 262.000 114.444 262.000 98.018 C 262.000 82.882,262.058 81.458,262.744 79.896 C 263.153 78.963,263.793 77.161,264.167 75.890 C 264.735 73.962,265.119 73.400,266.494 72.490 L 268.141 71.400 287.570 71.276 C 309.366 71.137,310.676 71.211,312.419 72.677 C 314.918 74.780,314.800 72.564,314.800 117.367 L 314.800 158.237 321.069 163.419 C 324.516 166.268,327.623 168.870,327.973 169.200 C 328.322 169.530,329.956 170.901,331.604 172.246 C 333.252 173.591,335.140 175.152,335.800 175.714 C 337.144 176.859,342.670 181.447,348.400 186.176 C 360.351 196.039,359.722 195.363,359.924 198.542 C 360.062 200.706,359.940 201.435,359.246 202.612 C 358.781 203.401,358.400 204.550,358.400 205.167 C 358.400 206.107,356.917 208.904,356.049 209.600 C 355.912 209.710,354.003 211.960,351.806 214.600 C 349.609 217.240,347.713 219.490,347.592 219.600 C 347.472 219.710,346.672 220.668,345.815 221.728 C 340.973 227.722,339.403 227.107,322.401 212.543 C 321.850 212.071,317.980 208.856,313.800 205.397 C 309.620 201.939,305.748 198.724,305.196 198.254 C 304.644 197.784,300.414 194.252,295.796 190.405 C 291.178 186.558,287.310 183.316,287.200 183.200 C 287.090 183.085,285.042 181.372,282.649 179.395 C 277.694 175.301,265.506 165.154,263.991 163.861 C 263.436 163.387,260.916 161.282,258.391 159.182 C 255.866 157.082,251.661 153.572,249.046 151.382 C 246.432 149.192,243.561 146.807,242.667 146.082 C 241.773 145.357,240.213 144.060,239.200 143.200 C 238.187 142.340,236.629 141.043,235.739 140.318 C 234.072 138.962,229.771 135.369,228.000 133.854 C 227.450 133.384,224.495 130.929,221.433 128.399 C 218.371 125.870,215.024 123.080,213.996 122.200 C 212.968 121.320,211.333 119.942,210.363 119.138 C 209.394 118.334,206.530 115.950,204.000 113.840 C 198.501 109.254,199.899 109.254,194.400 113.840 C 191.870 115.950,189.006 118.334,188.037 119.138 C 187.067 119.942,185.432 121.320,184.404 122.200 C 183.376 123.080,180.029 125.865,176.967 128.388 C 173.905 130.912,171.310 133.074,171.200 133.193 C 171.090 133.312,167.760 136.097,163.800 139.382 C 159.840 142.666,155.633 146.174,154.451 147.177 C 153.270 148.180,151.569 149.593,150.672 150.318 C 149.775 151.043,148.213 152.340,147.200 153.200 C 146.187 154.060,144.629 155.357,143.739 156.082 C 142.848 156.807,140.967 158.368,139.559 159.551 C 136.499 162.123,135.375 163.062,126.751 170.255 C 123.094 173.305,118.144 177.418,115.751 179.395 C 113.358 181.372,111.310 183.088,111.200 183.207 C 111.090 183.327,107.580 186.266,103.400 189.739 C 99.220 193.212,94.990 196.735,94.000 197.569 C 91.079 200.030,70.576 217.157,66.909 220.200 C 59.498 226.348,56.570 226.661,52.585 221.728 C 51.728 220.668,50.928 219.710,50.808 219.600 C 50.687 219.490,48.791 217.240,46.594 214.600 C 44.397 211.960,42.488 209.710,42.351 209.600 C 40.117 207.807,39.258 203.022,40.736 200.599 C 41.139 199.938,41.569 198.643,41.693 197.721 C 41.960 195.734,42.618 194.995,48.400 190.196 C 50.710 188.279,53.419 186.019,54.421 185.173 C 55.422 184.328,56.971 183.043,57.861 182.318 C 58.752 181.593,60.633 180.032,62.041 178.849 C 63.448 177.666,65.410 176.027,66.400 175.207 C 68.813 173.209,73.059 169.668,77.200 166.202 C 79.070 164.637,82.760 161.566,85.400 159.378 C 88.040 157.190,90.290 155.307,90.400 155.193 C 90.510 155.079,91.770 154.025,93.200 152.851 C 94.630 151.677,96.520 150.116,97.400 149.382 C 98.280 148.647,102.060 145.497,105.800 142.380 C 109.540 139.263,113.410 136.037,114.400 135.211 C 115.390 134.384,119.530 130.954,123.600 127.587 C 127.670 124.221,131.990 120.628,133.200 119.603 C 136.880 116.485,149.882 105.658,154.400 101.949 C 155.830 100.775,157.090 99.716,157.200 99.594 C 157.310 99.473,161.179 96.230,165.797 92.387 C 170.415 88.544,174.645 85.019,175.197 84.552 C 187.831 73.876,189.682 72.631,194.671 71.460 C 199.539 70.317,202.304 70.314,207.000 71.445 M201.784 122.374 C 201.911 122.580,204.757 124.995,208.108 127.740 C 211.458 130.486,214.560 133.063,215.001 133.466 C 215.441 133.870,217.601 135.629,219.801 137.376 C 222.000 139.123,223.890 140.670,224.000 140.815 C 224.110 140.959,225.730 142.310,227.600 143.817 C 229.470 145.323,231.090 146.655,231.200 146.778 C 231.310 146.900,232.840 148.164,234.600 149.587 C 236.360 151.011,237.890 152.280,238.000 152.409 C 238.110 152.538,239.644 153.804,241.409 155.222 C 244.381 157.610,250.074 162.301,259.588 170.200 C 261.707 171.960,264.220 174.030,265.172 174.800 C 266.124 175.570,268.005 177.110,269.352 178.223 C 273.855 181.943,279.005 186.184,280.980 187.800 C 282.056 188.680,283.689 190.030,284.609 190.800 C 285.530 191.570,287.074 192.853,288.041 193.650 C 289.009 194.448,291.486 196.494,293.546 198.197 C 295.606 199.901,298.756 202.478,300.546 203.925 C 302.336 205.372,303.890 206.662,304.000 206.792 C 304.110 206.922,305.640 208.186,307.400 209.600 C 309.160 211.014,310.690 212.274,310.800 212.399 C 310.910 212.525,311.855 213.318,312.900 214.162 L 314.800 215.696 314.800 264.487 C 314.800 315.273,314.752 316.841,313.174 317.816 C 312.968 317.943,312.800 318.520,312.800 319.097 C 312.800 322.013,309.556 326.111,305.727 328.032 L 303.000 329.400 263.800 329.400 L 224.600 329.400 224.498 291.500 L 224.396 253.600 199.998 253.600 L 175.600 253.600 175.600 289.000 C 175.600 323.845,175.588 324.400,174.819 324.400 C 174.141 324.400,174.023 324.728,173.919 326.900 L 173.800 329.400 134.800 329.400 C 98.183 329.400,95.693 329.356,94.045 328.681 C 89.754 326.924,86.802 323.781,85.758 319.860 C 84.729 315.996,84.959 221.215,86.000 219.891 C 86.440 219.331,86.813 218.362,86.828 217.737 C 86.844 217.112,86.979 216.310,87.128 215.956 C 87.457 215.178,90.476 212.638,114.173 193.200 C 116.989 190.890,121.567 187.107,124.347 184.794 C 127.126 182.480,130.840 179.427,132.600 178.008 C 134.360 176.590,135.890 175.326,136.000 175.200 C 136.110 175.074,137.640 173.814,139.400 172.400 C 141.160 170.986,142.690 169.726,142.800 169.600 C 142.910 169.474,144.440 168.212,146.200 166.795 C 147.960 165.377,149.604 164.034,149.853 163.809 C 150.102 163.584,151.082 162.770,152.031 162.000 C 152.980 161.230,155.047 159.520,156.625 158.200 C 158.203 156.880,161.354 154.270,163.629 152.400 C 169.157 147.854,175.390 142.703,177.600 140.855 C 178.590 140.026,180.840 138.196,182.600 136.787 C 184.360 135.378,185.890 134.119,186.000 133.990 C 186.110 133.861,187.730 132.520,189.600 131.010 C 195.232 126.462,199.792 122.618,199.933 122.300 C 200.123 121.873,201.508 121.928,201.784 122.374 M393.975 251.746 C 393.595 252.096,393.541 252.033,393.741 251.467 C 393.884 251.064,394.025 250.434,394.054 250.067 C 394.084 249.700,394.190 249.826,394.288 250.346 C 394.387 250.867,394.246 251.497,393.975 251.746 " stroke="none" fill="#fbfbfb" fill-rule="evenodd"></path><path id="path2" d="M200.100 70.676 C 200.485 70.776,201.115 70.776,201.500 70.676 C 201.885 70.575,201.570 70.493,200.800 70.493 C 200.030 70.493,199.715 70.575,200.100 70.676 M196.900 71.076 C 197.285 71.176,197.915 71.176,198.300 71.076 C 198.685 70.975,198.370 70.893,197.600 70.893 C 196.830 70.893,196.515 70.975,196.900 71.076 M203.300 71.076 C 203.685 71.176,204.315 71.176,204.700 71.076 C 205.085 70.975,204.770 70.893,204.000 70.893 C 203.230 70.893,202.915 70.975,203.300 71.076 M279.100 71.500 C 284.655 71.562,293.745 71.562,299.300 71.500 C 304.855 71.437,300.310 71.386,289.200 71.386 C 278.090 71.386,273.545 71.437,279.100 71.500 M314.495 117.076 C 314.443 139.778,314.535 158.436,314.700 158.538 C 314.972 158.706,314.969 129.478,314.695 90.600 C 314.637 82.460,314.547 94.374,314.495 117.076 M262.249 81.015 C 262.112 81.373,262.041 89.076,262.091 98.133 L 262.183 114.600 262.391 97.600 C 262.615 79.377,262.621 80.048,262.249 81.015 M164.575 138.500 L 163.400 139.800 164.700 138.625 C 165.912 137.530,166.184 137.200,165.875 137.200 C 165.806 137.200,165.221 137.785,164.575 138.500 M232.400 137.325 C 232.400 137.394,232.985 137.979,233.700 138.625 L 235.000 139.800 233.825 138.500 C 232.730 137.288,232.400 137.016,232.400 137.325 M60.575 180.100 L 59.400 181.400 60.700 180.225 C 61.415 179.579,62.000 178.994,62.000 178.925 C 62.000 178.616,61.670 178.888,60.575 180.100 M106.678 186.613 C 106.060 187.156,105.714 187.600,105.908 187.600 C 106.102 187.600,106.683 187.150,107.200 186.600 C 108.395 185.328,108.131 185.334,106.678 186.613 M91.775 211.700 L 90.600 213.000 91.900 211.825 C 93.112 210.730,93.384 210.400,93.075 210.400 C 93.006 210.400,92.421 210.985,91.775 211.700 M313.698 215.030 C 314.353 215.808,314.403 218.915,314.500 265.030 L 314.603 314.200 314.702 264.962 L 314.800 215.724 313.900 214.962 C 313.001 214.201,313.001 214.201,313.698 215.030 M70.575 216.900 L 69.400 218.200 70.700 217.025 C 71.912 215.930,72.184 215.600,71.875 215.600 C 71.806 215.600,71.221 216.185,70.575 216.900 M86.864 217.569 C 86.829 218.321,86.492 219.311,86.115 219.769 C 85.438 220.590,85.441 220.590,86.345 219.759 C 87.044 219.116,87.220 218.598,87.094 217.559 L 86.928 216.200 86.864 217.569 M85.394 269.600 C 85.394 296.550,85.442 307.575,85.500 294.100 C 85.558 280.625,85.558 258.575,85.500 245.100 C 85.442 231.625,85.394 242.650,85.394 269.600 M56.446 224.837 C 56.965 225.165,60.329 225.372,59.967 225.053 C 59.875 224.972,58.921 224.812,57.846 224.696 C 56.651 224.568,56.107 224.622,56.446 224.837 M340.000 224.800 L 338.200 225.080 339.800 225.134 C 340.680 225.163,341.670 225.013,342.000 224.800 C 342.330 224.587,342.420 224.437,342.200 224.466 C 341.980 224.496,340.990 224.646,340.000 224.800 M187.700 253.500 C 194.465 253.561,205.535 253.561,212.300 253.500 C 219.065 253.438,213.530 253.388,200.000 253.388 C 186.470 253.388,180.935 253.438,187.700 253.500 M308.975 325.700 L 307.800 327.000 309.100 325.825 C 309.815 325.179,310.400 324.594,310.400 324.525 C 310.400 324.216,310.070 324.488,308.975 325.700 M135.400 329.200 L 97.000 329.406 135.276 329.503 C 160.468 329.567,173.637 329.463,173.800 329.200 C 173.936 328.980,173.992 328.844,173.924 328.897 C 173.856 328.950,156.520 329.087,135.400 329.200 M224.742 329.302 C 224.908 329.468,242.224 329.558,263.222 329.502 L 301.400 329.400 262.920 329.200 C 241.756 329.090,224.576 329.136,224.742 329.302 " stroke="none" fill="#9bd2b0" fill-rule="evenodd"></path><path id="path3" d="M200.100 71.076 C 200.485 71.176,201.115 71.176,201.500 71.076 C 201.885 70.975,201.570 70.893,200.800 70.893 C 200.030 70.893,199.715 70.975,200.100 71.076 M81.775 207.300 L 80.600 208.600 81.900 207.425 C 83.112 206.330,83.384 206.000,83.075 206.000 C 83.006 206.000,82.421 206.585,81.775 207.300 M315.200 206.125 C 315.200 206.194,315.785 206.779,316.500 207.425 L 317.800 208.600 316.625 207.300 C 315.530 206.088,315.200 205.816,315.200 206.125 M224.592 290.800 C 224.592 311.370,224.640 319.785,224.700 309.500 C 224.759 299.215,224.759 282.385,224.700 272.100 C 224.640 261.815,224.592 270.230,224.592 290.800 M89.200 325.400 C 89.946 326.170,90.647 326.800,90.757 326.800 C 90.867 326.800,90.346 326.170,89.600 325.400 C 88.854 324.630,88.153 324.000,88.043 324.000 C 87.933 324.000,88.454 324.630,89.200 325.400 M308.778 325.500 L 307.400 327.000 308.900 325.622 C 309.725 324.863,310.400 324.188,310.400 324.122 C 310.400 323.816,310.062 324.104,308.778 325.500 M173.714 326.600 C 173.717 327.700,173.795 328.103,173.887 327.495 C 173.979 326.886,173.977 325.986,173.882 325.495 C 173.787 325.003,173.711 325.500,173.714 326.600 M115.730 329.100 C 126.472 329.159,143.932 329.159,154.530 329.100 C 165.129 329.041,156.340 328.992,135.000 328.992 C 113.660 328.992,104.989 329.041,115.730 329.100 M244.130 329.100 C 254.872 329.159,272.332 329.159,282.930 329.100 C 293.529 329.041,284.740 328.992,263.400 328.992 C 242.060 328.992,233.389 329.041,244.130 329.100 " stroke="none" fill="#7cc494" fill-rule="evenodd"></path><path id="path4" d="" stroke="none" fill="#74d49c" fill-rule="evenodd"></path></g></svg>